<?xml version="1.0" encoding="UTF-8"?>
<!DOCTYPE svg PUBLIC "-//W3C//DTD SVG 1.1//EN" "http://www.w3.org/Graphics/SVG/1.1/DTD/svg11.dtd">
<!-- Creator: CorelDRAW -->
<svg xmlns="http://www.w3.org/2000/svg" xml:space="preserve" width="1.76728in" height="0.856394in" version="1.1" style="shape-rendering:geometricPrecision; text-rendering:geometricPrecision; image-rendering:optimizeQuality; fill-rule:evenodd; clip-rule:evenodd"
viewBox="0 0 1128.43 546.82"
 xmlns:xlink="http://www.w3.org/1999/xlink"
 xmlns:xodm="http://www.corel.com/coreldraw/odm/2003">
 <defs>
  <style type="text/css">
   <![CDATA[
    .fil0 {fill:none}
   ]]>
  </style>
 </defs>
 <g id="Layer_x0020_1">
  <metadata id="CorelCorpID_0Corel-Layer"/>
  <polygon class="fil0" points="-0,1.45 136.48,1.45 136.48,254.98 136.48,258.37 354.51,1.45 549.37,0 378.09,202.57 665.62,546.21 490.41,546.1 288.68,304.18 136.48,481.79 136.48,483.23 84.35,546.76 -0,546.76 "/>
  <polygon class="fil0" points="928.95,332.62 602.05,332.62 502.33,213.54 462.82,166.34 602.05,0.06 1121.29,0.06 1025.03,118.16 862.05,118.21 662.48,118.21 622.18,166.34 662.48,214.47 989.42,214.52 1128.43,380.54 989.19,546.82 773.33,546.82 677.55,428.72 928.77,428.67 969.07,380.54 "/>
 </g>
</svg>
